<svg width="64" height="64" viewBox="0 0 64 64" fill="none" xmlns="http://www.w3.org/2000/svg">
<rect width="64" height="64" rx="8" fill="#0B66C2"/>
<path fill-rule="evenodd" clip-rule="evenodd" d="M18.8799 11.511C15.2289 11.511 12.2692 14.3684 12.2692 17.8933C12.2692 21.4181 15.2289 24.2756 18.8799 24.2756C22.5309 24.2756 25.4907 21.4181 25.4907 17.8933C25.4907 14.3684 22.5309 11.511 18.8799 11.511ZM24.8973 25.5032C27.2673 23.7538 28.796 20.9959 28.796 17.8933C28.796 12.606 24.3564 8.31982 18.8799 8.31982C13.4034 8.31982 8.96381 12.606 8.96381 17.8933C8.96381 20.9959 10.4926 23.7538 12.8625 25.5032C11.2008 26.2129 9.67199 27.2171 8.3623 28.4816C7.35097 29.458 6.50023 30.5606 5.82664 31.751C4.58363 33.9478 5.09055 36.1877 6.49039 37.7715C7.838 39.2963 9.99678 40.2313 12.2692 40.2313H25.4907C27.7631 40.2313 29.9219 39.2963 31.2695 37.7716C32.6693 36.1877 33.1762 33.9478 31.9332 31.751C31.2596 30.5606 30.4089 29.458 29.3976 28.4816C28.0879 27.2171 26.5591 26.2129 24.8973 25.5032ZM18.8799 27.4667C15.8117 27.4667 12.8691 28.6435 10.6996 30.7381C9.91287 31.4976 9.25127 32.355 8.72741 33.2809C8.22009 34.1775 8.38374 34.9975 9.00481 35.7002C9.67811 36.462 10.8906 37.0402 12.2692 37.0402H25.4907C26.8693 37.0402 28.0817 36.462 28.755 35.7002C29.3761 34.9975 29.5398 34.1775 29.0324 33.2809C28.5086 32.3551 27.847 31.4976 27.0603 30.7381C24.8907 28.6435 21.9482 27.4667 18.8799 27.4667Z" fill="white"/>
<line x1="7" y1="51.5" x2="58.2" y2="51.5" stroke="white" stroke-width="5"/>
<line x1="37" y1="21.5" x2="59.4" y2="21.5" stroke="white" stroke-width="5"/>
<line x1="37" y1="35.5" x2="59.4" y2="35.5" stroke="white" stroke-width="5"/>
</svg>
