<svg width="90" height="90" viewBox="0 0 90 90" fill="none" xmlns="http://www.w3.org/2000/svg">
<path fill-rule="evenodd" clip-rule="evenodd" d="M44.6308 5.81738C22.5778 5.81738 4.75 23.7763 4.75 45.994C4.75 63.7538 16.1729 78.787 32.0194 84.1078C34.0006 84.5078 34.7263 83.2433 34.7263 82.1796C34.7263 81.2482 34.661 78.0556 34.661 74.7291C23.5671 77.1242 21.2569 69.9398 21.2569 69.9398C19.4741 65.2835 16.8324 64.0868 16.8324 64.0868C13.2014 61.6256 17.0969 61.6256 17.0969 61.6256C21.1247 61.8917 23.2382 65.7496 23.2382 65.7496C26.8031 71.8688 32.5476 70.1398 34.8586 69.0753C35.1884 66.4811 36.2455 64.6852 37.368 63.6876C28.5198 62.7562 19.2104 59.2975 19.2104 43.865C19.2104 39.4749 20.7941 35.8831 23.3035 33.0897C22.9076 32.0921 21.5206 27.9673 23.7002 22.4466C23.7002 22.4466 27.0676 21.3821 34.6602 26.5706C37.9109 25.6911 41.2633 25.2437 44.6308 25.24C47.9982 25.24 51.4308 25.7061 54.6006 26.5706C62.1941 21.3821 65.5614 22.4466 65.5614 22.4466C67.741 27.9673 66.3533 32.0921 65.9573 33.0897C68.5329 35.8831 70.0512 39.4749 70.0512 43.865C70.0512 59.2975 60.7418 62.6893 51.8276 63.6876C53.2806 64.9513 54.5345 67.3455 54.5345 71.1373C54.5345 76.525 54.4692 80.849 54.4692 82.1788C54.4692 83.2433 55.1957 84.5078 57.1761 84.1086C73.0227 78.7862 84.4455 63.7538 84.4455 45.994C84.5108 23.7763 66.6178 5.81738 44.6308 5.81738Z" fill="#24292F"/>
</svg>
