<?xml version="1.0" encoding="utf-8"?>
<svg xmlns="http://www.w3.org/2000/svg" height="24px" viewBox="0 -960 960 960" width="24px" fill="#F9DB78" stroke="black" stroke-width="45">
  <path d="M 480 -269 L 314 -169 C 306.667 -164.333 299 -162.333 291 -163 C 283 -163.667 276 -166.333 270 -171 C 264 -175.667 259.333 -181.5 256 -188.5 C 252.667 -195.5 252 -203.333 254 -212 L 298 -401 L 151 -528 C 144.333 -534 140.167 -540.833 138.5 -548.5 C 136.833 -556.167 137.333 -563.667 140 -571 C 142.667 -578.333 146.667 -584.333 152 -589 C 157.333 -593.667 164.667 -596.667 174 -598 L 368 -615 L 443 -793 C 446.333 -801 451.5 -807 458.5 -811 C 465.5 -815 472.667 -817 480 -817 C 487.333 -817 494.5 -815 501.5 -811 C 508.5 -807 513.667 -801 517 -793 L 592 -615 L 786 -598 C 795.333 -596.667 802.667 -593.667 808 -589 C 813.333 -584.333 817.333 -578.333 820 -571 C 822.667 -563.667 823.167 -556.167 821.5 -548.5 C 819.833 -540.833 815.667 -534 809 -528 L 662 -401 L 706 -212 C 708 -203.333 707.333 -195.5 704 -188.5 C 700.667 -181.5 696 -175.667 690 -171 C 684 -166.333 677 -163.667 669 -163 C 661 -162.333 653.333 -164.333 646 -169 L 480 -269 Z"/>
  <path style="stroke: rgb(0, 0, 0); stroke-width: 1px; fill: rgb(255, 255, 255); paint-order: fill; transform-box: fill-box; transform-origin: 50% 50%;" d="M 480.836 -794.809 L 481.11 -294.39 L 653.601 -190.89 L 665.121 -184.86 L 675.137 -187.75 L 682.737 -193.35 L 685.443 -203.06 L 682.945 -212.81 L 637.031 -408.91 L 798.123 -548.23 L 799.85 -555.48 L 799.444 -562.35 L 795.814 -568.45 L 792.437 -572.21 L 788.536 -574.44 L 778.653 -575.72 L 576.788 -593.58 L 497.774 -780.75 L 495.832 -785.48 L 493.288 -789.19 L 491.084 -791.27 L 488.308 -793.1 L 485.381 -794.34 L 480.836 -794.809 Z" transform="matrix(1, 0.00052, -0.00052, 1, -0.00001, -0.000071)"/>
</svg>